<?xml version="1.0" encoding="utf-8"?>
<svg xmlns="http://www.w3.org/2000/svg" xmlns:svg="http://www.w3.org/2000/svg" version="1.1" viewBox="0 0 1400 340">
	<title>The titlepage for the Standard Ebooks edition of A Tale of Two Cities, by Charles Dickens</title>
	<g aria-label="A TALE OF TWO CITIES">
		<path d="m 164.05847,52.807016 h -16.2807 L 116.61987,130 h 18.90059 l 5.7076,-15.4386 h 29.38012 L 176.31578,130 h 18.90059 z m 0.5614,46.31579 h -17.4035 l 8.60818,-22.45614 h 0.18714 z"/>
		<path d="m 224.28654,68.245613 h 18.33918 V 130 h 17.59065 V 68.245613 h 18.33918 V 52.807016 h -54.26901 z"/>
		<path d="M 324.52631,52.807016 H 308.2456 L 277.08771,130 h 18.90058 l 5.70761,-15.4386 h 29.38011 L 336.78362,130 h 18.90058 z m 0.5614,46.31579 H 307.6842 l 8.60819,-22.45614 h 0.18713 z"/>
		<path d="M 381.19444,52.807016 H 363.60379 V 130 h 44.16375 v -15.4386 h -26.5731 z"/>
		<path d="M 465.58187,52.807016 H 421.41812 V 130 h 44.16375 v -15.4386 h -26.5731 V 99.029239 h 25.45029 V 83.590642 H 439.00877 V 68.245613 h 26.5731 z"/>
		<path d="m 507.81725,91.356724 c 0,22.549706 16.09357,40.046786 38.92398,40.046786 22.17544,0 38.83041,-17.49708 38.83041,-40.046786 0,-22.549708 -17.40351,-39.953217 -38.83041,-39.953217 -21.23977,0 -38.92398,17.403509 -38.92398,39.953217 z m 18.99415,0 c 0,-11.508772 6.36257,-23.017544 19.92983,-23.017544 13.66082,0 19.83625,11.508772 19.83625,23.017544 0,11.508776 -5.80117,23.017546 -19.83625,23.017546 -14.40936,0 -19.92983,-11.50877 -19.92983,-23.017546 z"/>
		<path d="M 642.96489,52.807016 H 598.33331 V 130 h 17.59065 V 99.029239 h 24.98245 V 83.590642 H 615.92396 V 68.245613 h 27.04093 z"/>
		<path d="m 677.48097,68.245613 h 18.33918 V 130 H 713.4108 V 68.245613 h 18.33918 V 52.807016 h -54.26901 z"/>
		<path d="m 802.31288,130 h 19.46199 l 21.9883,-77.192984 H 824.30119 L 811.1082,105.76608 h -0.46783 L 796.60528,52.807016 H 783.31873 L 769.28364,105.76608 H 768.8158 L 755.62282,52.807016 H 736.06727 L 758.05557,130 h 19.55556 L 789.962,86.678362 Z"/>
		<path d="m 846.59652,91.356724 c 0,22.549706 16.09356,40.046786 38.92397,40.046786 22.17544,0 38.83041,-17.49708 38.83041,-40.046786 0,-22.549708 -17.40351,-39.953217 -38.83041,-39.953217 -21.23976,0 -38.92397,17.403509 -38.92397,39.953217 z m 18.99415,0 c 0,-11.508772 6.36257,-23.017544 19.92982,-23.017544 13.66082,0 19.83626,11.508772 19.83626,23.017544 0,11.508776 -5.80117,23.017546 -19.83626,23.017546 -14.40935,0 -19.92982,-11.50877 -19.92982,-23.017546 z"/>
		<path d="m 1005.8494,114.09357 c -17.68418,0 -25.45026,-12.35088 -25.45026,-22.736846 0,-10.292397 7.76608,-22.643275 25.45026,-22.643275 8.9825,0 15.1579,4.77193 15.1579,4.77193 l 7.4854,-14.97076 c 0,0 -8.6082,-7.111112 -25.3567,-7.111112 -21.89475,0 -41.82458,17.964913 -41.82458,40.140352 0,22.081871 20.02339,39.859651 41.82458,39.859651 16.7485,0 25.3567,-7.11111 25.3567,-7.11111 l -7.4854,-14.97076 c 0,0 -6.1754,4.77193 -15.1579,4.77193 z"/>
		<path d="m 1057.9049,52.807016 h -17.5906 V 130 h 17.5906 z"/>
		<path d="m 1064.7544,68.245613 h 18.3392 V 130 h 17.5906 V 68.245613 h 18.3392 V 52.807016 h -54.269 z"/>
		<path d="m 1147.9488,52.807016 h -17.5906 V 130 h 17.5906 z"/>
		<path d="m 1208.3962,52.807016 h -44.1637 V 130 h 44.1637 v -15.4386 h -26.5731 V 99.029239 h 25.4503 V 83.590642 h -25.4503 V 68.245613 h 26.5731 z"/>
		<path d="m 1251.9533,51.403507 c -12.4445,0 -25.1696,9.169591 -25.1696,23.578948 0,8.046784 5.4269,15.251462 14.69,19.836258 9.1696,4.584795 17.4035,7.111107 17.4035,12.725147 0,7.20468 -7.2982,7.57895 -11.1345,7.57895 -8.6081,0 -18.9005,-8.70176 -18.9005,-8.70176 l -8.7954,14.78363 c 0,0 10.9474,10.19883 29.0059,10.19883 15.0643,0 29.0994,-6.45614 29.0994,-24.88889 0,-10.105264 -9.4503,-17.40351 -18.0585,-21.052632 C 1251.2983,81.719297 1244,78.631578 1244,74.327484 c 0,-4.210526 3.1813,-6.923976 9.1696,-6.923976 7.9533,0 15.6258,5.333333 15.6258,5.333333 l 7.1111,-14.035088 c 0,0 -9.9181,-7.298246 -23.9532,-7.298246 z"/>
	</g>
	<g aria-label="CHARLES DICKENS">
		<path d="m 358.94024,278.07018 c -13.26315,0 -19.08771,-9.26316 -19.08771,-17.05264 0,-7.71929 5.82456,-16.98245 19.08771,-16.98245 6.73685,0 11.36843,3.57895 11.36843,3.57895 l 5.61403,-11.22807 c 0,0 -6.45614,-5.33334 -19.01754,-5.33334 -16.42106,0 -31.36842,13.47369 -31.36842,30.10527 0,16.5614 15.01754,29.89473 31.36842,29.89473 12.5614,0 19.01754,-5.33333 19.01754,-5.33333 l -5.61403,-11.22807 c 0,0 -4.63158,3.57895 -11.36843,3.57895 z"/>
		<path d="m 399.23191,266.77193 h 18.66667 V 290 h 13.19298 v -57.89474 h -13.19298 v 23.08772 H 399.23191 V 232.10526 H 386.03893 V 290 h 13.19298 z"/>
		<path d="M 473.89639,232.10526 H 461.68586 L 438.31744,290 h 14.17544 l 4.2807,-11.57895 h 22.03509 L 483.08937,290 h 14.17544 z m 0.42105,34.73685 H 461.26481 L 467.72095,250 h 0.14035 z"/>
		<path d="M 504.4545,232.10526 V 290 h 13.19298 V 267.12281 L 535.33169,290 h 16.77193 L 532.1738,266.07018 c 7.08772,-2.24562 11.85965,-8.07018 11.85965,-16.77193 0,-11.36842 -8.14035,-17.19299 -18.8772,-17.19299 z m 13.19298,25.68421 v -15.15789 h 1.54386 c 4.98246,0 10.94737,0.35088 10.94737,7.57895 0,7.22807 -5.96491,7.57894 -10.94737,7.57894 z"/>
		<path d="M 572.94901,232.10526 H 559.75603 V 290 h 33.12281 v -11.57895 h -19.92983 z"/>
		<path d="m 637.48958,232.10526 h -33.1228 V 290 h 33.1228 v -11.57895 h -19.92982 v -11.64912 h 19.08772 v -11.57895 h -19.08772 v -11.50877 h 19.92982 z"/>
		<path d="m 671.40736,231.05263 c -9.33334,0 -18.8772,6.8772 -18.8772,17.68421 0,6.03509 4.07018,11.4386 11.01755,14.8772 6.87719,3.43859 13.05263,5.33333 13.05263,9.54385 0,5.40351 -5.47369,5.68422 -8.35088,5.68422 -6.45614,0 -14.17544,-6.52632 -14.17544,-6.52632 l -6.59649,11.08772 c 0,0 8.21053,7.64912 21.75439,7.64912 11.29824,0 21.82456,-4.8421 21.82456,-18.66666 0,-7.57895 -7.08772,-13.05264 -13.54386,-15.78948 -6.59649,-2.80702 -12.07018,-5.12281 -12.07018,-8.35088 0,-3.15789 2.38597,-5.19298 6.8772,-5.19298 5.96491,0 11.71929,4 11.71929,4 l 5.33334,-10.52631 c 0,0 -7.4386,-5.47369 -17.96491,-5.47369 z"/>
		<path d="M 726.41173,232.10526 V 290 h 16.77193 c 15.92982,0 29.19298,-12.07018 29.19298,-28.98246 0,-16.8421 -13.33333,-28.91228 -29.19298,-28.91228 z m 13.19298,46.10527 v -34.31579 h 2.03509 c 9.82456,0 16.49123,7.50877 16.49123,17.19298 -0.0702,9.68421 -6.73684,17.12281 -16.49123,17.12281 z"/>
		<path d="M 796.41392,232.10526 H 783.22093 V 290 h 13.19299 z"/>
		<path d="m 838.49069,278.07018 c -13.26316,0 -19.08772,-9.26316 -19.08772,-17.05264 0,-7.71929 5.82456,-16.98245 19.08772,-16.98245 6.73684,0 11.36842,3.57895 11.36842,3.57895 l 5.61404,-11.22807 c 0,0 -6.45614,-5.33334 -19.01755,-5.33334 -16.42105,0 -31.36842,13.47369 -31.36842,30.10527 0,16.5614 15.01754,29.89473 31.36842,29.89473 12.56141,0 19.01755,-5.33333 19.01755,-5.33333 l -5.61404,-11.22807 c 0,0 -4.63158,3.57895 -11.36842,3.57895 z"/>
		<path d="m 918.2911,290 -26.94737,-30.45614 23.29824,-27.4386 h -16 l -19.85965,23.64913 V 232.10526 H 865.58934 V 290 h 13.19298 V 265.4386 L 900.11566,290 Z"/>
		<path d="M 958.94793,232.10526 H 925.82512 V 290 h 33.12281 V 278.42105 H 939.0181 v -11.64912 h 19.08772 V 255.19298 H 939.0181 v -11.50877 h 19.92983 z"/>
		<path d="m 984.72532,254.07018 h 0.14035 L 1007.8832,290 h 13.193 v -57.89474 h -13.193 v 35.92983 h -0.1403 L 984.72532,232.10526 H 971.53234 V 290 h 13.19298 z"/>
		<path d="m 1054.4721,231.05263 c -9.3334,0 -18.8772,6.8772 -18.8772,17.68421 0,6.03509 4.0701,11.4386 11.0175,14.8772 6.8772,3.43859 13.0526,5.33333 13.0526,9.54385 0,5.40351 -5.4736,5.68422 -8.3508,5.68422 -6.4562,0 -14.1755,-6.52632 -14.1755,-6.52632 l -6.5965,11.08772 c 0,0 8.2106,7.64912 21.7544,7.64912 11.2983,0 21.8246,-4.8421 21.8246,-18.66666 0,-7.57895 -7.0877,-13.05264 -13.5439,-15.78948 -6.5965,-2.80702 -12.0702,-5.12281 -12.0702,-8.35088 0,-3.15789 2.386,-5.19298 6.8772,-5.19298 5.9649,0 11.7193,4 11.7193,4 l 5.3334,-10.52631 c 0,0 -7.4386,-5.47369 -17.9649,-5.47369 z"/>
	</g>
</svg>
